<svg width="108" height="36" viewBox="0 0 108 36" fill="none" xmlns="http://www.w3.org/2000/svg">
<path d="M18.3265 27.7769L11.037 23.6653C10.102 23.1394 9.54796 21.8008 9.66916 20.4143L10.708 9.60956C10.7946 8.60558 11.4526 7.91235 12.1798 8.03187C12.7685 8.12749 13.236 8.77291 13.3226 9.60956C13.3745 10.1116 13.6862 10.494 14.0671 10.5179H14.171C14.5692 10.4462 14.8636 9.94422 14.8116 9.39442C14.8116 9.39442 14.8116 9.39442 14.8116 9.37052C14.725 8.43825 14.3961 7.57769 13.8766 6.95618C13.3745 6.33466 12.7165 6 12.024 6C11.3487 6 10.6907 6.33466 10.1713 6.95618C9.65185 7.57769 9.32287 8.43825 9.2363 9.37052L8.19742 20.1514C7.97233 22.4701 8.90732 24.6932 10.4656 25.5777L17.7551 29.737C17.8417 29.7849 17.9456 29.8088 18.0321 29.8088C18.3265 29.8088 18.6035 29.5697 18.7247 29.1872C18.8806 28.6135 18.7074 28.0159 18.3265 27.7769Z" fill="#7B8AB8"/>
<path d="M9.66914 20.3904L9.91155 17.8805L8.23202 19.6494L8.19739 20.1036C8.12814 20.7968 8.16277 21.49 8.30128 22.1594L9.66914 20.7251C9.65183 20.6295 9.65183 20.5099 9.66914 20.3904Z" fill="#1E1E1E"/>
<path d="M21.5643 25.3865C21.4431 24.4542 21.0795 23.6415 20.5255 23.0678L14.2749 16.3984C12.9416 14.9881 11.089 14.9881 9.75575 16.3984L3.50516 23.0678C3.17619 23.4263 3.12424 24.0717 3.38396 24.502C3.62637 24.9323 4.07655 25.0279 4.40553 24.6933L10.6561 18.0478C11.4526 17.1873 12.5607 17.1873 13.3745 18.0478L19.6251 24.6933C20.1445 25.2431 20.2831 26.247 19.9541 27.0359C19.6251 27.8247 18.9325 28.1355 18.3092 27.8247C17.9283 27.6335 17.4954 27.8964 17.3569 28.4223C17.2184 28.9243 17.3915 29.498 17.7551 29.7132C18.1014 29.9044 18.465 30 18.8286 30C19.1403 30 19.4346 29.9283 19.729 29.8088C20.3696 29.498 20.9064 28.8765 21.2354 28.0877C21.5817 27.2749 21.7029 26.3188 21.5643 25.3865Z" fill="#7B8AB8"/>
<path d="M14.8636 19.6255L16.8374 21.7052L16.4565 18.7171L14.5865 16.757L14.8636 19.6255Z" fill="#1E1E1E"/>
<path d="M13.1667 24.8606L11.2101 25.9841L13.1667 27.1076L14.2402 26.51C14.4999 26.3665 14.7596 26.1753 14.9847 25.9363L13.1667 24.8606Z" fill="#1E1E1E"/>
<path d="M15.8332 20.1275L14.7943 9.3227C14.7423 8.7729 14.3614 8.36652 13.9632 8.43824C13.5649 8.50995 13.2706 9.03585 13.3225 9.58565L14.3614 20.3904C14.4999 21.7769 13.9459 23.1155 12.9936 23.6414L5.68678 27.7769C5.01151 28.1594 4.24966 27.7052 3.97263 26.7968C3.74754 26.0319 3.92069 25.1713 4.38818 24.6693C4.71716 24.3347 4.78642 23.6892 4.54401 23.2351C4.30161 22.7809 3.83411 22.6852 3.50513 23.0199L3.48782 23.0438C2.95107 23.6175 2.57014 24.4303 2.44894 25.3625C2.32774 26.2709 2.43163 27.2271 2.7606 28.0398C3.08958 28.8526 3.62634 29.4741 4.26698 29.7609C4.56133 29.9044 4.85568 29.9522 5.16734 29.9522C5.53095 29.9522 5.89456 29.8566 6.24085 29.6653L13.5476 25.506C15.1233 24.6693 16.0583 22.4462 15.8332 20.1275Z" fill="#7B8AB8"/>
<path d="M31.5136 12.9384V14.2126H33.5547C33.7777 14.2126 33.9492 14.4286 33.9492 14.7094C33.9492 14.7094 33.9492 14.7094 33.9492 14.731V15.9188C33.9492 16.1995 33.7777 16.4155 33.5547 16.4155C33.5547 16.4155 33.5547 16.4155 33.5376 16.4155H31.4964V25.5293C31.4964 25.8101 31.3249 26.0261 31.1019 26.0261C31.1019 26.0261 31.1019 26.0261 31.0848 26.0261H29.5068C29.2838 26.0261 29.1123 25.8101 29.1123 25.5293C29.1123 25.5293 29.1123 25.5293 29.1123 25.5077V13.0032C29.0436 10.7572 30.433 8.85664 32.2168 8.74866C32.3369 8.74866 32.457 8.74866 32.577 8.74866C33.2803 8.74866 33.9664 8.96463 34.601 9.33177C34.7897 9.46135 34.8583 9.74211 34.7725 10.0013L34.2237 11.3835C34.1207 11.621 33.8806 11.729 33.6919 11.5994C33.4003 11.4267 33.0916 11.3187 32.7657 11.3187C32.1139 11.2539 31.5479 11.8586 31.4964 12.6793C31.5136 12.7873 31.5136 12.8736 31.5136 12.9384ZM45.184 14.2126V25.5293C45.184 25.8101 45.0125 26.0261 44.7895 26.0261C44.7895 26.0261 44.7895 26.0261 44.7724 26.0261H43.1943C42.9714 26.0261 42.7998 25.8101 42.7998 25.5293C42.7998 25.5293 42.7998 25.5293 42.7998 25.5077V24.0608C42.0794 25.443 40.8273 26.2204 39.5237 26.1556C36.7279 26.1556 34.8583 23.5856 34.8583 19.8278C34.8583 16.1132 36.6936 13.6079 39.4208 13.5863C40.7587 13.4784 42.028 14.2774 42.7827 15.6812V14.2126C42.7827 13.9319 42.9542 13.7159 43.1772 13.7159C43.1772 13.7159 43.1772 13.7159 43.1943 13.7159H44.7724C44.9953 13.6943 45.184 13.9103 45.184 14.2126ZM42.7827 19.9358V19.8278C42.7998 19.4607 42.7484 19.0935 42.6798 18.7264C42.4225 17.1714 41.3076 16.07 40.0383 16.1132C38.4946 16.1132 37.2596 17.6897 37.2596 19.6118C37.2596 19.6982 37.2596 19.7846 37.2596 19.871C37.1396 21.7931 38.2716 23.4561 39.7982 23.6072C39.8839 23.6072 39.9525 23.6288 40.0383 23.6288C41.3076 23.672 42.4053 22.5706 42.6798 21.0156C42.7484 20.6701 42.7827 20.3029 42.7827 19.9358ZM50.7757 15.8972C50.0038 15.8972 49.4721 16.2211 49.4721 16.977C49.4721 19.0503 54.6521 17.9705 54.6521 22.3762C54.6521 24.8814 52.8683 26.1125 50.7928 26.1125C49.4378 26.1341 48.1171 25.6157 47.0022 24.6655C46.8478 24.5143 46.7963 24.2551 46.8821 24.0392L47.3452 22.8513C47.4481 22.5922 47.6883 22.5058 47.8769 22.6138C47.8941 22.6138 47.9112 22.6354 47.9284 22.6354C48.8032 23.3697 49.8323 23.7584 50.8786 23.8016C51.7019 23.8016 52.3366 23.4561 52.3366 22.657C52.3366 20.3677 47.2423 21.6203 47.2595 17.2578C47.2595 14.731 48.9918 13.5431 50.9644 13.5431C52.0964 13.5431 53.2285 13.9103 54.2233 14.6014C54.412 14.731 54.4806 15.0333 54.3777 15.2709L53.8803 16.5451C53.7774 16.7827 53.5372 16.8906 53.3314 16.7611C52.5252 16.2427 51.6505 15.962 50.7757 15.8972ZM61.4445 24.8598C61.4959 25.0974 61.4102 25.3566 61.2386 25.4646C60.5868 25.8965 59.8664 26.1341 59.1289 26.1556C57.5337 26.1988 56.213 24.6223 56.1787 22.6138C56.1787 22.441 56.1787 22.2682 56.1958 22.0955V11.3403C56.1958 11.0595 56.3674 10.8435 56.5903 10.8435C56.5903 10.8435 56.5903 10.8435 56.6075 10.8435H58.1684C58.3913 10.8435 58.5629 11.0595 58.5629 11.3403C58.5629 11.3403 58.5629 11.3403 58.5629 11.3619V14.2342H60.9642C61.1872 14.2342 61.3587 14.4502 61.3587 14.731C61.3587 14.731 61.3587 14.731 61.3587 14.7526V15.9404C61.3587 16.2211 61.1872 16.4371 60.9642 16.4371C60.9642 16.4371 60.9642 16.4371 60.947 16.4371H58.58V21.6203C58.58 22.9593 58.9574 23.564 59.6263 23.564C59.9694 23.5424 60.2953 23.4345 60.604 23.2833C60.8098 23.1753 61.05 23.3049 61.1357 23.564C61.1357 23.5856 61.1357 23.5856 61.1529 23.6072L61.4445 24.8598ZM88.7167 19.8494C88.8368 23.4345 86.6241 26.4796 83.7597 26.6092C80.9124 26.7604 78.4939 23.9744 78.391 20.3677C78.2709 16.7827 80.4836 13.7375 83.348 13.6079C83.4166 13.6079 83.5024 13.6079 83.571 13.6079C86.2296 13.3704 88.5281 15.8972 88.6996 19.2231C88.7167 19.4391 88.7167 19.655 88.7167 19.8494ZM80.7923 19.8926C80.6894 21.8147 81.8215 23.4777 83.348 23.6072C84.8746 23.7368 86.1953 22.3114 86.2982 20.3893C86.3154 20.2165 86.3154 20.0438 86.2982 19.8926C86.4012 17.9705 85.2691 16.3075 83.7425 16.1779C82.216 16.0484 80.8952 17.4738 80.7923 19.3959C80.7752 19.5686 80.7752 19.7414 80.7923 19.8926ZM96.1952 14.1263V15.9836C96.1952 16.2643 96.0236 16.4803 95.8007 16.4803C95.8007 16.4803 95.8007 16.4803 95.7835 16.4803C94.2741 16.3507 92.9534 17.7977 92.8505 19.6982C92.8505 19.8278 92.8505 19.9574 92.8505 20.087V25.5293C92.8505 25.8101 92.6789 26.0261 92.4559 26.0261C92.4559 26.0261 92.4559 26.0261 92.4388 26.0261H90.8608C90.6378 26.0261 90.4663 25.8101 90.4663 25.5293C90.4663 25.5293 90.4663 25.5293 90.4663 25.5077V14.191C90.4663 13.9103 90.6378 13.6943 90.8608 13.6943C90.8608 13.6943 90.8608 13.6943 90.8779 13.6943H92.4388C92.6618 13.6943 92.8333 13.9103 92.8333 14.191C92.8333 14.191 92.8333 14.191 92.8333 14.2126V16.07C93.3822 14.6662 94.4799 13.7159 95.732 13.6079C95.955 13.5863 96.1437 13.7807 96.178 14.0615C96.1952 14.1047 96.1952 14.1047 96.1952 14.1263ZM101.392 20.6269L99.9001 22.6138V25.5077C99.9001 25.7885 99.7285 26.0045 99.5056 26.0045C99.5056 26.0045 99.5056 26.0045 99.4884 26.0045H97.9104C97.6874 26.0045 97.5159 25.7885 97.5159 25.5077C97.5159 25.5077 97.5159 25.5077 97.5159 25.4861V9.43976C97.5159 9.159 97.6874 8.94303 97.9104 8.94303C97.9104 8.94303 97.9104 8.94303 97.9275 8.94303H99.4884C99.7114 8.94303 99.8829 9.159 99.8829 9.43976C99.8829 9.43976 99.8829 9.43976 99.8829 9.46135V18.8559L103.794 13.8887C103.862 13.8023 103.965 13.7375 104.068 13.7375H105.715C105.938 13.7375 106.126 13.9751 106.126 14.2558C106.126 14.3854 106.092 14.515 106.023 14.6014L103.056 18.4888L106.504 25.2486C106.624 25.4862 106.572 25.7885 106.384 25.9397C106.315 25.9829 106.246 26.0261 106.161 26.0261H104.274C104.137 26.0261 104.017 25.9397 103.931 25.7885L101.392 20.6269ZM76.8987 15.2061V14.2126C76.8987 13.9319 76.7272 13.7159 76.5042 13.7159C76.5042 13.7159 76.5042 13.7159 76.4871 13.7159H74.9091C74.6861 13.7159 74.5146 13.9319 74.5146 14.2126C74.5146 14.2126 74.5146 14.2126 74.5146 14.2342V17.301C74.5146 18.532 74.5317 19.763 74.5146 20.9724C74.5146 21.9443 74.0171 22.8081 73.2796 23.1105C72.3534 23.4129 71.41 22.7218 71.1527 21.5771C71.1356 21.4908 71.1184 21.3828 71.1012 21.2964C71.0841 20.9508 71.0669 20.6053 71.0841 20.2597V14.2342C71.0841 13.9535 70.9126 13.7375 70.6896 13.7375C70.6896 13.7375 70.6896 13.7375 70.6724 13.7375H69.1116C68.8886 13.7375 68.7171 13.9535 68.7171 14.2342C68.7171 14.2342 68.7171 14.2342 68.7171 14.2558V17.3226C68.7171 18.5536 68.7342 19.7846 68.7171 20.994C68.7514 22.1818 68.0138 23.1753 67.0704 23.2185C66.1614 23.2617 65.3895 22.3978 65.3037 21.2532C65.2866 20.9292 65.3037 20.5837 65.3037 20.2597V14.2342C65.3037 13.9535 65.1322 13.7375 64.9092 13.7375H64.8921H63.3141C63.0911 13.7375 62.9196 13.9535 62.9196 14.2342C62.9196 14.2342 62.9196 14.2342 62.9196 14.2558V21.0804C62.9367 23.5208 64.3089 25.6157 66.2128 26.0693C67.6536 26.4364 69.1287 25.6157 69.8834 24.0176C70.4495 25.2054 71.4443 25.9829 72.542 26.134C73.5712 26.2204 74.5832 25.8101 75.3722 24.9894C76.024 24.2983 76.4871 23.3913 76.7272 22.3762C76.8473 21.6419 76.8987 20.9076 76.8644 20.1518C76.9159 18.4672 76.8987 16.8474 76.8987 15.2061Z" fill="#7B8AB8"/>
</svg>
